<svg width="131" height="24" viewBox="0 0 131 24" fill="none" xmlns="http://www.w3.org/2000/svg">
<path d="M2 10.5C1.17157 10.5 0.5 11.1716 0.5 12C0.5 12.8284 1.17157 13.5 2 13.5L2 10.5ZM130.061 13.0606C130.646 12.4749 130.646 11.5251 130.061 10.9393L120.515 1.39339C119.929 0.807602 118.979 0.807602 118.393 1.39339C117.808 1.97917 117.808 2.92892 118.393 3.51471L126.879 12L118.393 20.4853C117.808 21.0711 117.808 22.0208 118.393 22.6066C118.979 23.1924 119.929 23.1924 120.515 22.6066L130.061 13.0606ZM2 13.5L129 13.5L129 10.5L2 10.5L2 13.5Z" fill="#1D347E"/>
</svg>
