<svg width="1143" height="831" viewBox="0 0 1143 831" fill="none" xmlns="http://www.w3.org/2000/svg">
<rect x="370.048" y="115.841" width="402.227" height="102.97" rx="10" fill="#D3E7FF"/>
<rect x="815.715" y="115.841" width="326.608" height="102.97" rx="10" fill="#D3E7FF"/>
<rect x="960.604" y="237.467" width="181.525" height="142.357" rx="10" fill="#D3E7FF"/>
<rect x="960.604" y="398.655" width="181.525" height="181.525" rx="10" fill="#D3E7FF"/>
<rect x="960.604" y="599.01" width="181.525" height="106.956" rx="10" fill="#D3E7FF"/>
<rect x="960.604" y="727.81" width="181.525" height="103.19" rx="10" fill="#D3E7FF"/>
<rect x="669.863" y="727.81" width="274.17" height="103.19" rx="10" fill="#D3E7FF"/>
<rect x="492.325" y="727.226" width="157.422" height="103.19" rx="10" fill="#D3E7FF"/>
<rect x="492.325" y="250.989" width="157.422" height="454.941" rx="10" fill="#D3E7FF"/>
<rect x="230.878" y="250.989" width="235.705" height="455.32" rx="10" fill="#D3E7FF"/>
<rect x="687.003" y="250.989" width="235.705" height="455.32" rx="10" fill="#D3E7FF"/>
<rect x="493.13" width="156.669" height="84.36" rx="10" fill="#D3E7FF"/>
<rect x="674.132" y="0.804443" width="156.669" height="84.36" rx="10" fill="#D3E7FF"/>
<rect x="217.935" y="727.81" width="238.769" height="103.19" rx="10" fill="#D3E7FF"/>
<rect x="4.02222" y="727.056" width="181.525" height="103.944" rx="10" fill="#D3E7FF"/>
<rect x="4.02222" y="434.809" width="181.525" height="76.0746" rx="10" fill="#D3E7FF"/>
<rect x="4.02222" y="541.013" width="181.525" height="156.669" rx="10" fill="#D3E7FF"/>
<rect x="4.02222" y="248.766" width="181.525" height="156.669" rx="10" fill="#D3E7FF"/>
<rect y="115.841" width="346.719" height="102.97" rx="10" fill="#D3E7FF"/>
<rect width="48.2672" height="69.9874" transform="matrix(0 -1 -1 0 130.321 728.03)" fill="#D3E7FF"/>
<rect width="48.2672" height="69.9874" transform="matrix(0 -1 -1 0 130.321 551.05)" fill="#D3E7FF"/>
<rect width="48.2672" height="69.9874" transform="matrix(0 -1 -1 0 246.967 497.152)" fill="#D3E7FF"/>
<rect width="48.2672" height="69.9874" transform="matrix(1 0 0 -1 324.194 736.075)" fill="#D3E7FF"/>
<rect width="48.2672" height="69.9874" transform="matrix(0 -1 -1 0 130.321 443.254)" fill="#D3E7FF"/>
<rect width="48.2672" height="69.9874" transform="matrix(0 -1 -1 0 130.321 257.425)" fill="#D3E7FF"/>
<rect x="767.448" y="131.93" width="48.2672" height="69.9874" fill="#D3E7FF"/>
<rect x="930.752" y="744.119" width="48.2672" height="69.9874" fill="#D3E7FF"/>
<rect x="627.474" y="744.119" width="48.2672" height="69.9874" fill="#D3E7FF"/>
<rect width="48.2672" height="69.9874" transform="matrix(0 -1 -1 0 1086.01 242.945)" fill="#D3E7FF"/>
<rect width="48.2672" height="69.9874" transform="matrix(0 -1 -1 0 685.394 66.7696)" fill="#D3E7FF"/>
<rect width="48.2672" height="69.9874" transform="matrix(0 -1 -1 0 1086.01 403.835)" fill="#D3E7FF"/>
<rect width="48.2672" height="69.9874" transform="matrix(0 -1 -1 0 1086.01 608.971)" fill="#D3E7FF"/>
<rect width="48.2672" height="69.9874" transform="matrix(0 -1 -1 0 1086.01 752.164)" fill="#D3E7FF"/>
<rect x="176.98" y="744.119" width="48.2672" height="69.9874" fill="#D3E7FF"/>
<rect x="326.608" y="131.93" width="48.2672" height="69.9874" fill="#D3E7FF"/>
<rect x="456.929" y="440.84" width="48.2672" height="69.9874" fill="#D3E7FF"/>
<rect x="645.976" y="443.254" width="41.0271" height="69.9874" fill="#D3E7FF"/>
<rect x="536.57" y="131.93" width="65.1607" height="69.9874" transform="rotate(-90 536.57 131.93)" fill="#D3E7FF"/>
<rect x="536.57" y="267.078" width="48.2672" height="69.9874" transform="rotate(-90 536.57 267.078)" fill="#D3E7FF"/>
<rect x="536.57" y="744.119" width="48.2672" height="69.9874" transform="rotate(-90 536.57 744.119)" fill="#D3E7FF"/>
<rect x="444.862" y="744.119" width="48.2672" height="69.9874" fill="#D3E7FF"/>
<path d="M974.237 561.527V558.863L983.665 543.97H985.764V547.89H984.432L977.688 558.565V558.735H990.611V561.527H974.237ZM984.581 565.788V560.717L984.602 559.502V543.97H987.724V565.788H984.581Z" fill="#1D347E"/>
<path d="M694.817 820.293C693.482 820.293 692.282 820.038 691.216 819.526C690.158 819.008 689.313 818.298 688.681 817.396C688.049 816.494 687.711 815.464 687.669 814.306H690.865C690.943 815.244 691.358 816.014 692.111 816.618C692.864 817.222 693.766 817.524 694.817 817.524C695.655 817.524 696.397 817.332 697.044 816.948C697.697 816.558 698.209 816.021 698.578 815.34C698.954 814.658 699.143 813.88 699.143 813.006C699.143 812.119 698.951 811.327 698.567 810.631C698.184 809.935 697.655 809.388 696.98 808.99C696.312 808.592 695.545 808.39 694.679 808.383C694.018 808.383 693.354 808.497 692.687 808.724C692.019 808.951 691.479 809.249 691.067 809.619L688.052 809.171L689.277 798.177H701.273V801H692.015L691.323 807.104H691.451C691.877 806.693 692.442 806.348 693.145 806.071C693.855 805.794 694.615 805.656 695.424 805.656C696.753 805.656 697.935 805.972 698.972 806.604C700.016 807.236 700.836 808.099 701.433 809.193C702.037 810.279 702.335 811.529 702.328 812.943C702.335 814.356 702.015 815.617 701.369 816.725C700.73 817.832 699.842 818.706 698.706 819.345C697.576 819.977 696.28 820.293 694.817 820.293Z" fill="#1D347E"/>
<path d="M24.4866 818.685C23.5136 818.67 22.5548 818.493 21.6102 818.152C20.6727 817.811 19.8204 817.243 19.0534 816.447C18.2864 815.652 17.672 814.583 17.2104 813.241C16.7558 811.898 16.5285 810.222 16.5285 808.212C16.5285 806.309 16.7167 804.618 17.0932 803.141C17.4767 801.664 18.0271 800.417 18.7444 799.402C19.4618 798.379 20.3283 797.601 21.3439 797.069C22.3595 796.536 23.4994 796.27 24.7636 796.27C26.0633 796.27 27.2175 796.525 28.226 797.037C29.2345 797.548 30.0513 798.255 30.6763 799.157C31.3084 800.059 31.7096 801.085 31.8801 802.236H28.6308C28.4106 801.327 27.9739 800.584 27.3204 800.009C26.667 799.434 25.8148 799.146 24.7636 799.146C23.1656 799.146 21.9192 799.842 21.0243 801.234C20.1365 802.626 19.6891 804.562 19.6819 807.04H19.8417C20.2182 806.422 20.6798 805.897 21.2267 805.464C21.7807 805.023 22.3986 804.686 23.0804 804.452C23.7693 804.21 24.4937 804.089 25.2537 804.089C26.5179 804.089 27.6614 804.398 28.6841 805.016C29.7139 805.627 30.5342 806.472 31.145 807.552C31.7558 808.631 32.0612 809.867 32.0612 811.259C32.0612 812.651 31.7452 813.912 31.1131 815.041C30.4881 816.17 29.6074 817.065 28.471 817.726C27.3346 818.379 26.0065 818.699 24.4866 818.685ZM24.476 815.915C25.3141 815.915 26.0633 815.709 26.7239 815.297C27.3844 814.885 27.9064 814.331 28.2899 813.635C28.6734 812.939 28.8652 812.161 28.8652 811.302C28.8652 810.464 28.677 809.7 28.3006 809.011C27.9312 808.322 27.4199 807.775 26.7665 807.371C26.1202 806.966 25.3815 806.763 24.5506 806.763C23.9185 806.763 23.3325 806.884 22.7927 807.126C22.2601 807.367 21.7913 807.701 21.3865 808.127C20.9817 808.553 20.6621 809.043 20.4277 809.597C20.2004 810.144 20.0868 810.723 20.0868 811.334C20.0868 812.15 20.275 812.907 20.6514 813.603C21.0349 814.299 21.5569 814.86 22.2175 815.286C22.8851 815.705 23.6379 815.915 24.476 815.915Z" fill="#1D347E"/>
<path d="M17.6497 391.222L27.1738 372.386V372.227H16.1582V369.403H30.5829V372.323L21.0907 391.222H17.6497Z" fill="#1D347E"/>
<path d="M256.611 666.753C257.584 666.76 258.543 666.937 259.488 667.285C260.432 667.633 261.285 668.202 262.045 668.99C262.812 669.778 263.422 670.844 263.877 672.186C264.339 673.521 264.573 675.183 264.58 677.172C264.58 679.082 264.388 680.783 264.005 682.275C263.621 683.759 263.071 685.013 262.354 686.035C261.643 687.058 260.78 687.836 259.765 688.369C258.749 688.901 257.606 689.168 256.334 689.168C255.035 689.168 253.881 688.912 252.872 688.401C251.863 687.889 251.043 687.182 250.411 686.28C249.779 685.371 249.385 684.327 249.229 683.148H252.478C252.691 684.086 253.124 684.846 253.778 685.428C254.438 686.003 255.29 686.291 256.334 686.291C257.932 686.291 259.179 685.595 260.074 684.203C260.969 682.804 261.42 680.851 261.427 678.344H261.256C260.887 678.954 260.425 679.48 259.871 679.92C259.324 680.361 258.71 680.702 258.028 680.943C257.346 681.185 256.618 681.305 255.844 681.305C254.587 681.305 253.444 680.996 252.414 680.378C251.384 679.761 250.564 678.912 249.953 677.832C249.342 676.753 249.037 675.521 249.037 674.136C249.037 672.758 249.349 671.508 249.974 670.386C250.606 669.263 251.487 668.376 252.616 667.722C253.753 667.062 255.084 666.739 256.611 666.753ZM256.622 669.523C255.791 669.523 255.042 669.729 254.374 670.141C253.714 670.545 253.192 671.096 252.808 671.792C252.425 672.481 252.233 673.248 252.233 674.093C252.233 674.938 252.417 675.705 252.787 676.394C253.163 677.076 253.675 677.619 254.321 678.024C254.974 678.422 255.72 678.621 256.558 678.621C257.183 678.621 257.765 678.5 258.305 678.258C258.845 678.017 259.317 677.683 259.722 677.257C260.127 676.824 260.443 676.334 260.67 675.787C260.898 675.24 261.011 674.665 261.011 674.061C261.011 673.258 260.819 672.513 260.436 671.824C260.06 671.135 259.541 670.581 258.881 670.162C258.22 669.736 257.467 669.523 256.622 669.523Z" fill="#1D347E"/>
<path d="M517.832 695.603C516.305 695.603 514.956 695.34 513.784 694.815C512.619 694.289 511.706 693.565 511.046 692.642C510.385 691.718 510.059 690.667 510.066 689.488C510.059 688.565 510.247 687.716 510.63 686.942C511.021 686.161 511.55 685.511 512.218 684.992C512.885 684.467 513.631 684.133 514.455 683.991V683.863C513.368 683.6 512.498 683.018 511.845 682.116C511.192 681.214 510.868 680.177 510.876 679.005C510.868 677.89 511.163 676.896 511.76 676.022C512.363 675.142 513.191 674.449 514.242 673.945C515.293 673.441 516.49 673.188 517.832 673.188C519.16 673.188 520.346 673.444 521.39 673.955C522.442 674.46 523.269 675.152 523.873 676.033C524.476 676.906 524.782 677.897 524.789 679.005C524.782 680.177 524.448 681.214 523.787 682.116C523.127 683.018 522.268 683.6 521.209 683.863V683.991C522.026 684.133 522.761 684.467 523.415 684.992C524.075 685.511 524.601 686.161 524.991 686.942C525.389 687.716 525.591 688.565 525.599 689.488C525.591 690.667 525.258 691.718 524.597 692.642C523.937 693.565 523.02 694.289 521.849 694.815C520.684 695.34 519.345 695.603 517.832 695.603ZM517.832 692.908C518.734 692.908 519.515 692.759 520.176 692.46C520.836 692.155 521.348 691.732 521.71 691.193C522.072 690.646 522.257 690.007 522.264 689.275C522.257 688.515 522.058 687.844 521.667 687.262C521.284 686.679 520.762 686.221 520.101 685.887C519.441 685.554 518.684 685.387 517.832 685.387C516.973 685.387 516.209 685.554 515.542 685.887C514.874 686.221 514.349 686.679 513.965 687.262C513.581 687.844 513.393 688.515 513.4 689.275C513.393 690.007 513.567 690.646 513.922 691.193C514.285 691.732 514.8 692.155 515.467 692.46C516.135 692.759 516.923 692.908 517.832 692.908ZM517.832 682.755C518.557 682.755 519.199 682.61 519.76 682.318C520.322 682.027 520.762 681.622 521.081 681.104C521.408 680.585 521.575 679.978 521.582 679.282C521.575 678.6 521.412 678.004 521.092 677.492C520.78 676.981 520.343 676.587 519.782 676.31C519.221 676.026 518.571 675.884 517.832 675.884C517.079 675.884 516.419 676.026 515.851 676.31C515.29 676.587 514.853 676.981 514.54 677.492C514.228 678.004 514.075 678.6 514.082 679.282C514.075 679.978 514.231 680.585 514.551 681.104C514.871 681.622 515.311 682.027 515.872 682.318C516.44 682.61 517.094 682.755 517.832 682.755Z" fill="#1D347E"/>
<path d="M710.434 673.182V695H707.131V676.484H707.004L701.783 679.893V676.74L707.227 673.182H710.434ZM723.272 695.362C721.589 695.355 720.15 694.911 718.957 694.031C717.764 693.15 716.851 691.868 716.219 690.185C715.587 688.501 715.271 686.474 715.271 684.102C715.271 681.737 715.587 679.716 716.219 678.04C716.858 676.364 717.775 675.085 718.968 674.205C720.168 673.324 721.603 672.884 723.272 672.884C724.941 672.884 726.372 673.327 727.565 674.215C728.758 675.096 729.671 676.374 730.303 678.05C730.942 679.719 731.262 681.737 731.262 684.102C731.262 686.481 730.946 688.512 730.314 690.195C729.682 691.871 728.769 693.153 727.576 694.041C726.383 694.922 724.948 695.362 723.272 695.362ZM723.272 692.518C724.749 692.518 725.903 691.797 726.734 690.355C727.572 688.913 727.991 686.829 727.991 684.102C727.991 682.29 727.8 680.76 727.416 679.51C727.04 678.253 726.496 677.301 725.786 676.655C725.083 676.001 724.245 675.675 723.272 675.675C721.802 675.675 720.648 676.399 719.809 677.848C718.971 679.297 718.549 681.381 718.542 684.102C718.542 685.92 718.73 687.457 719.106 688.714C719.49 689.964 720.033 690.913 720.736 691.559C721.439 692.198 722.285 692.518 723.272 692.518Z" fill="#1D347E"/>
<path d="M517.103 52.449V74.2672H513.801V55.7516H513.673L508.453 59.1607V56.0073L513.897 52.449H517.103Z" fill="#1D347E"/>
<path d="M692.545 76.6805V74.2942L699.928 66.645C700.716 65.8141 701.366 65.0861 701.877 64.4611C702.396 63.829 702.783 63.2288 703.038 62.6607C703.294 62.0925 703.422 61.4888 703.422 60.8496C703.422 60.1251 703.251 59.5001 702.911 58.9746C702.57 58.4419 702.104 58.0335 701.515 57.7494C700.925 57.4582 700.261 57.3126 699.523 57.3126C698.741 57.3126 698.06 57.4724 697.477 57.792C696.895 58.1116 696.447 58.5626 696.135 59.145C695.822 59.7274 695.666 60.4092 695.666 61.1905H692.523C692.523 59.8624 692.829 58.7011 693.44 57.7068C694.05 56.7125 694.888 55.9419 695.954 55.395C697.019 54.8411 698.23 54.5641 699.587 54.5641C700.957 54.5641 702.165 54.8375 703.209 55.3844C704.26 55.9241 705.08 56.6628 705.67 57.6003C706.259 58.5307 706.554 59.5818 706.554 60.7537C706.554 61.5634 706.401 62.3553 706.096 63.1294C705.798 63.9036 705.276 64.7665 704.53 65.7182C703.784 66.6628 702.747 67.8098 701.419 69.1592L697.083 73.6976V73.8574H706.906V76.6805H692.545Z" fill="#1D347E"/>
<path d="M394.382 209.714C392.919 209.714 391.612 209.461 390.462 208.957C389.318 208.453 388.412 207.753 387.745 206.858C387.084 205.956 386.729 204.912 386.68 203.726H390.025C390.067 204.373 390.284 204.934 390.675 205.41C391.072 205.878 391.591 206.241 392.23 206.496C392.869 206.752 393.579 206.88 394.361 206.88C395.22 206.88 395.98 206.731 396.64 206.432C397.308 206.134 397.83 205.719 398.207 205.186C398.583 204.646 398.771 204.025 398.771 203.322C398.771 202.59 398.583 201.947 398.207 201.393C397.837 200.832 397.294 200.392 396.577 200.072C395.866 199.753 395.007 199.593 393.998 199.593H392.155V196.908H393.998C394.808 196.908 395.518 196.763 396.129 196.471C396.747 196.18 397.23 195.775 397.578 195.257C397.926 194.731 398.1 194.117 398.1 193.414C398.1 192.739 397.947 192.153 397.642 191.656C397.344 191.152 396.917 190.758 396.363 190.474C395.817 190.189 395.17 190.047 394.425 190.047C393.714 190.047 393.05 190.179 392.432 190.442C391.822 190.697 391.324 191.067 390.941 191.55C390.557 192.025 390.351 192.597 390.323 193.265H387.138C387.173 192.086 387.521 191.049 388.182 190.154C388.849 189.259 389.73 188.559 390.824 188.055C391.917 187.551 393.132 187.299 394.467 187.299C395.866 187.299 397.074 187.572 398.089 188.119C399.112 188.659 399.9 189.38 400.454 190.282C401.015 191.184 401.292 192.171 401.285 193.243C401.292 194.465 400.952 195.502 400.263 196.354C399.581 197.206 398.672 197.778 397.535 198.069V198.24C398.984 198.46 400.106 199.035 400.902 199.966C401.704 200.896 402.102 202.05 402.095 203.428C402.102 204.628 401.768 205.704 401.094 206.656C400.426 207.608 399.513 208.357 398.356 208.904C397.198 209.444 395.873 209.714 394.382 209.714Z" fill="#1D347E"/>
<g clip-path="url(#clip0_1_36)">
<path d="M583.24 28.424V21.7202H556.425V61.9429H583.24V55.2391H579.888V58.591H559.777V25.0721H579.888V28.424H583.24Z" fill="#1D347E"/>
<path d="M580.87 32.7579L578.5 35.1278L583.528 40.1556H569.832V43.5075H583.528L578.5 48.5353L580.87 50.9052L589.944 41.8315L580.87 32.7579Z" fill="#1D347E"/>
</g>
<g clip-path="url(#clip1_1_36)">
<path d="M583.229 485.085C583.229 491.747 577.824 497.152 571.162 497.152C564.498 497.152 559.095 491.747 559.095 485.085C559.095 478.423 564.498 473.018 571.162 473.018C577.824 473.018 583.229 478.423 583.229 485.085ZM603.34 468.996V501.174C603.34 505.617 599.738 509.219 595.296 509.219H547.028C542.586 509.219 538.984 505.617 538.984 501.175V468.996C538.984 464.554 542.586 460.951 547.028 460.951H559.095V456.929C559.095 454.706 560.896 452.907 563.117 452.907H579.206C581.43 452.907 583.229 454.706 583.229 456.929V460.952H595.296C599.738 460.952 603.34 464.554 603.34 468.996ZM587.251 485.085C587.251 476.216 580.031 468.996 571.162 468.996C562.291 468.996 555.073 476.216 555.073 485.085C555.073 493.955 562.291 501.175 571.162 501.175C580.031 501.175 587.251 493.955 587.251 485.085ZM599.318 464.974H587.251V473.018H599.318V464.974Z" fill="#1D347E"/>
</g>
<path d="M90.8149 748.082V750.826L89.3283 749.342C88.2578 748.27 86.5202 748.27 85.4476 749.342C84.3771 750.413 84.3771 752.149 85.4497 753.223L90.4223 758.196C90.5446 758.318 90.6776 758.421 90.8149 758.518V767.891C89.6854 768.166 88.5935 768.613 87.5713 769.234L80.9437 762.605C80.9748 762.441 80.992 762.276 80.992 762.104L80.9952 755.066C80.9952 753.553 79.766 752.321 78.2493 752.321C76.7348 752.321 75.5056 753.553 75.5056 755.066V757.168L73.5653 755.227C72.4927 754.156 70.7551 754.156 69.6846 755.227C68.612 756.298 68.612 758.035 69.6846 759.107L71.6271 761.049H69.5259C68.0103 761.049 66.78 762.276 66.78 763.792C66.78 765.306 68.0103 766.534 69.5259 766.534L76.5611 766.536C76.7327 766.538 76.9 766.516 77.062 766.486L83.6907 773.115C83.0707 774.136 82.6234 775.229 82.3499 776.357H72.9743C72.881 776.221 72.7769 776.087 72.6536 775.966L67.6778 770.989C66.6094 769.917 64.8708 769.917 63.7992 770.989C62.7277 772.062 62.7277 773.799 63.7992 774.872L65.2848 776.357H62.54C61.0255 776.357 59.7963 777.584 59.7963 779.1C59.7963 780.616 61.0255 781.844 62.54 781.844H65.2848L63.7992 783.33C62.7277 784.405 62.7277 786.14 63.7992 787.211C64.8708 788.284 66.6062 788.284 67.6778 787.211L72.6536 782.236C72.7769 782.114 72.881 781.98 72.9743 781.844H82.3499C82.6234 782.973 83.0707 784.068 83.6907 785.086L77.062 791.716C76.8989 791.685 76.7327 791.667 76.5611 791.667L69.5259 791.664C68.0103 791.664 66.78 792.895 66.78 794.41C66.78 795.923 68.0103 797.153 69.5248 797.153H71.6271L69.6857 799.094C68.6141 800.166 68.6141 801.9 69.6846 802.975C70.7551 804.047 72.4948 804.044 73.5664 802.973L75.5056 801.035V803.135C75.5056 804.648 76.7348 805.879 78.2493 805.879C79.766 805.879 80.9952 804.648 80.9952 803.135L80.992 796.101C80.992 795.925 80.9748 795.76 80.9437 795.597L87.5713 788.968C88.5914 789.588 89.6854 790.035 90.8149 790.312V799.686C90.6776 799.779 90.5446 799.884 90.4223 800.007L85.4497 804.979C84.3771 806.05 84.3771 807.788 85.4476 808.859C86.5202 809.933 88.2578 809.931 89.3283 808.859L90.8149 807.375V810.119C90.8149 811.633 92.042 812.865 93.5597 812.865C95.0721 812.861 96.3013 811.633 96.3013 810.119V807.375L97.7858 808.859C98.8594 809.933 100.596 809.931 101.668 808.859C102.738 807.788 102.738 806.052 101.668 804.979L96.6928 800.007C96.5694 799.884 96.4407 799.779 96.3013 799.686V790.312C97.4318 790.035 98.5237 789.588 99.5448 788.968L106.171 795.597C106.143 795.76 106.122 795.928 106.122 796.101V803.135C106.122 804.648 107.351 805.879 108.867 805.879C110.382 805.879 111.611 804.648 111.611 803.135V801.033L113.55 802.975C114.621 804.047 116.359 804.047 117.434 802.975C118.502 801.904 118.502 800.166 117.431 799.094L115.49 797.153H117.591C119.105 797.153 120.335 795.923 120.335 794.41C120.335 792.895 119.108 791.664 117.591 791.667H110.556C110.382 791.667 110.216 791.687 110.053 791.716L103.424 785.086C104.044 784.068 104.492 782.973 104.766 781.844H114.143C114.235 781.98 114.34 782.114 114.463 782.236L119.437 787.211C120.51 788.284 122.245 788.284 123.318 787.211C124.39 786.14 124.39 784.402 123.316 783.33L121.832 781.844H124.575C126.092 781.844 127.321 780.616 127.321 779.1C127.321 777.584 126.092 776.357 124.577 776.357H121.831L123.316 774.872C124.39 773.8 124.39 772.062 123.318 770.989C122.244 769.917 120.509 769.917 119.437 770.989L114.463 775.966C114.34 776.087 114.235 776.219 114.143 776.357H104.766C104.492 775.229 104.044 774.133 103.424 773.115L110.053 766.486C110.216 766.514 110.385 766.536 110.556 766.536H117.591C119.108 766.536 120.335 765.306 120.335 763.792C120.335 762.278 119.105 761.048 117.591 761.048H115.49L117.431 759.107C118.502 758.035 118.502 756.298 117.431 755.226C116.359 754.154 114.621 754.156 113.55 755.227L111.611 757.168V755.066C111.608 753.553 110.38 752.321 108.867 752.321C107.351 752.321 106.122 753.553 106.122 755.066V762.104C106.122 762.274 106.143 762.441 106.171 762.605L99.5448 769.234C98.5237 768.613 97.4296 768.166 96.3013 767.89L96.3023 758.518C96.4396 758.421 96.5726 758.318 96.6928 758.196L101.668 753.223C102.738 752.149 102.738 750.413 101.668 749.342C100.596 748.27 98.8573 748.27 97.7858 749.342L96.3023 750.826L96.3013 748.082C96.3013 746.568 95.0742 745.34 93.5565 745.34C92.042 745.34 90.8149 746.568 90.8149 748.082ZM89.5224 783.134C87.2957 780.908 87.2957 777.293 89.5224 775.067C91.7513 772.838 95.3638 772.838 97.5927 775.067C99.8216 777.295 99.8216 780.908 97.5927 783.137C96.4782 784.251 95.0184 784.808 93.5586 784.808C92.0977 784.808 90.6368 784.251 89.5224 783.134Z" fill="#1D347E"/>
<path d="M587.909 141.622C584.683 138.396 580.768 136.263 576.219 136.263C562.011 136.263 557.522 147.465 557.522 147.465C560.303 147.54 563.126 147.398 565.263 147.23C565.338 146.056 566.315 145.127 567.508 145.127C568.75 145.127 569.76 146.134 569.76 147.379C569.76 148.621 568.753 149.632 567.508 149.632C567.075 149.632 566.673 149.509 566.329 149.3C565.181 150.687 563.991 152.44 562.917 154.144C561.892 155.77 560.978 157.351 560.322 158.525C559.666 159.7 559.263 160.468 559.263 160.468C559.267 160.468 564.636 162.459 573.586 158.518C578.355 156.418 581.424 157.563 583.259 159.398C584.87 161.009 585.534 163.149 585.575 164.107C585.582 164.328 585.593 164.678 585.593 165.137C585.593 168.933 584.855 180.135 576.215 186.589H594.934C594.934 186.589 598.466 177.073 598.466 167.057C598.469 160.248 594.752 148.468 587.909 141.622Z" fill="#1D347E"/>
<path d="M567.508 145.127C566.315 145.127 565.338 146.056 565.263 147.23C565.259 147.279 565.259 147.331 565.259 147.379C565.259 148.192 565.688 148.901 566.333 149.3C566.676 149.512 567.079 149.632 567.512 149.632C568.753 149.632 569.764 148.625 569.764 147.379C569.76 146.138 568.753 145.127 567.508 145.127Z" fill="#1D347E"/>
<path d="M565.256 147.379C565.256 147.331 565.256 147.279 565.259 147.23C563.119 147.394 560.3 147.54 557.518 147.465C557.518 147.465 543.329 155.497 543.329 160.047C543.329 160.047 543.228 161.251 543.146 163.097L545.615 165.569L550.683 170.648C553.289 165.987 556.478 161.367 559.267 160.468C559.267 160.468 559.67 159.7 560.326 158.525C560.982 157.351 561.896 155.77 562.921 154.144C563.991 152.443 565.185 150.691 566.333 149.3C565.688 148.904 565.256 148.192 565.256 147.379Z" fill="#1D347E"/>
<path d="M545.619 165.569L543.15 163.097C542.926 168.209 542.856 178.248 545.496 181.339C545.496 181.339 547.711 175.962 550.683 170.648L545.619 165.569Z" fill="#1D347E"/>
<path d="M566.329 149.3C562.988 153.346 559.267 160.468 559.267 160.468C553.304 162.396 545.499 181.339 545.499 181.339C541.905 177.129 543.337 160.047 543.337 160.047C543.337 155.497 557.525 147.465 557.525 147.465C560.307 147.543 563.13 147.398 565.267 147.23C565.263 147.279 565.263 147.331 565.263 147.379C565.256 148.192 565.688 148.904 566.329 149.3Z" stroke="#D3E7FF" stroke-miterlimit="10" stroke-linecap="round" stroke-linejoin="round"/>
<path d="M594.938 186.589C594.938 186.589 598.469 177.073 598.469 167.057C598.469 157.041 590.422 136.267 576.219 136.267C562.015 136.267 557.518 147.465 557.518 147.465" stroke="#D3E7FF" stroke-miterlimit="10" stroke-linecap="round" stroke-linejoin="round"/>
<path d="M559.267 160.468C559.267 160.468 564.64 162.459 573.59 158.518C582.539 154.576 585.496 162.064 585.578 164.107C585.66 166.151 585.907 179.355 576.219 186.589" stroke="#D3E7FF" stroke-miterlimit="10" stroke-linecap="round" stroke-linejoin="round"/>
<path d="M569.76 147.379C569.76 148.625 568.753 149.632 567.508 149.632C567.075 149.632 566.673 149.509 566.329 149.3C565.684 148.904 565.255 148.192 565.255 147.379C565.255 147.331 565.255 147.279 565.259 147.23C565.338 146.056 566.311 145.127 567.508 145.127C568.753 145.127 569.76 146.138 569.76 147.379Z" stroke="#D3E7FF" stroke-miterlimit="10" stroke-linecap="round" stroke-linejoin="round"/>
<path d="M545.496 181.339C545.496 181.339 541.931 159.819 552.215 156.37C554.688 155.542 562.917 154.14 562.917 154.14" stroke="#D3E7FF" stroke-miterlimit="10" stroke-linecap="round" stroke-linejoin="round"/>
<path d="M543.15 163.097L545.619 165.569L550.683 170.648" stroke="#D3E7FF" stroke-miterlimit="10" stroke-linecap="round" stroke-linejoin="round"/>
<g clip-path="url(#clip2_1_36)">
<path d="M1106.29 494.64C1096.48 477.472 1080.14 467.561 1061.38 467.248C1054.1 460.691 1039.47 458.52 1038.83 458.428C1038.06 458.312 1037.29 458.619 1036.81 459.226C1036.33 459.828 1036.19 460.643 1036.46 461.368C1037.7 464.687 1039.33 469.676 1039.87 472.394C1032.81 475.433 1026.5 479.18 1023.14 481.851C1017.35 477.391 1004.84 472.006 1004.26 471.757C1003.48 471.421 1002.58 471.566 1001.94 472.128C1001.31 472.688 1001.05 473.562 1001.28 474.377C1001.33 474.529 1005.59 489.526 1005.59 495.729C1005.59 501.931 1001.33 516.928 1001.28 517.08C1001.05 517.895 1001.31 518.77 1001.94 519.329C1002.58 519.891 1003.48 520.037 1004.26 519.7C1004.84 519.451 1017.35 514.066 1023.14 509.606C1024.5 510.683 1026.35 511.938 1028.52 513.249C1027.96 514.286 1027.54 515.688 1027.54 517.683C1027.54 523.017 1032.52 528.66 1037.22 528.66C1042.98 528.66 1045.52 527.323 1048.67 522.273C1052.77 523.488 1056.83 524.269 1060.48 524.269C1079.62 524.269 1096.32 514.263 1106.29 496.818C1106.68 496.142 1106.68 495.315 1106.29 494.64Z" fill="#D3E7FF"/>
<path d="M1040.17 465.381C1046.36 466.698 1055.66 469.173 1063.27 473.103C1057.01 474.197 1050.47 476.059 1044.07 478.374C1043.12 474.279 1041.57 469.367 1040.17 465.381Z" fill="#1D347E"/>
<path d="M1036.16 523.61C1032.42 523.429 1026.05 516.624 1026.36 510.242C1026.47 507.991 1026.92 506.649 1027.29 505.837C1034.26 509.989 1042.29 514.159 1050.57 517.621C1045.96 523.691 1043.08 523.946 1036.16 523.61Z" fill="#1D347E"/>
<path d="M1060.48 519.878C1047.7 519.878 1028.49 508.94 1024.71 505.153C1024.28 504.725 1023.71 504.51 1023.15 504.51C1022.59 504.51 1022.03 504.725 1021.6 505.153C1019.07 507.681 1011.89 511.356 1006.72 513.776C1008.05 508.614 1009.98 500.304 1009.98 495.729C1009.98 491.153 1008.05 482.844 1006.72 477.681C1011.89 480.101 1019.07 483.776 1021.6 486.304C1022.46 487.161 1023.85 487.161 1024.71 486.304C1028.49 482.518 1047.7 471.579 1060.48 471.579C1077.6 471.579 1092.61 480.363 1101.84 495.729C1092.61 511.094 1077.6 519.878 1060.48 519.878Z" fill="#1D347E"/>
<path d="M1084.63 497.923C1087.05 497.923 1089.02 495.957 1089.02 493.532C1089.02 491.107 1087.05 489.141 1084.63 489.141C1082.2 489.141 1080.24 491.107 1080.24 493.532C1080.24 495.957 1082.2 497.923 1084.63 497.923Z" fill="#D3E7FF"/>
<path d="M1064.87 500.118C1064.87 494.297 1068.85 488.221 1068.89 488.161C1069.56 487.151 1069.29 485.79 1068.28 485.119C1067.28 484.452 1065.91 484.718 1065.24 485.728C1065.04 486.019 1060.48 492.949 1060.48 500.118C1060.48 507.288 1065.04 514.218 1065.24 514.509C1065.66 515.144 1066.36 515.487 1067.06 515.487C1067.48 515.487 1067.91 515.367 1068.28 515.118C1069.29 514.445 1069.56 513.083 1068.89 512.073C1068.85 512.013 1064.87 505.972 1064.87 500.118Z" fill="#D3E7FF"/>
</g>
<path d="M787.472 790.873C787.181 790.965 786.878 791.071 786.561 791.15C784.369 791.662 782.074 791.52 779.962 790.741C779.237 790.498 778.639 789.976 778.299 789.292C777.958 788.608 777.904 787.816 778.147 787.092C778.39 786.367 778.912 785.769 779.596 785.428C780.28 785.088 781.072 785.034 781.796 785.277C782.834 785.735 783.994 785.838 785.096 785.567C786.184 785.19 787.221 784.681 788.184 784.049C790.606 782.577 793.299 781.608 796.103 781.199L801.765 782.518L797.317 789.025L787.472 790.873Z" fill="#1D347E"/>
<path d="M818.408 781.199C821.212 781.608 823.905 782.577 826.327 784.049C827.29 784.681 828.327 785.19 829.415 785.567C830.517 785.838 831.677 785.735 832.714 785.277C833.439 785.034 834.231 785.088 834.915 785.428C835.599 785.769 836.12 786.367 836.364 787.092C836.607 787.816 836.553 788.608 836.212 789.292C835.872 789.976 835.274 790.498 834.549 790.741C832.437 791.52 830.142 791.662 827.95 791.15C827.633 791.071 827.33 790.965 827.039 790.873L823.476 791.717L815.24 787.085L818.408 781.199Z" fill="#1D347E"/>
<path d="M819.464 785.778C821.205 786.128 822.849 786.853 824.28 787.904C825.712 788.955 826.897 790.306 827.752 791.863C828.23 792.716 828.916 793.433 829.747 793.948C830.578 794.463 831.527 794.758 832.503 794.806C833.538 794.935 834.587 794.886 835.605 794.661C836.343 794.465 837.13 794.57 837.79 794.954C838.451 795.337 838.933 795.968 839.129 796.706C839.325 797.445 839.219 798.231 838.836 798.892C838.452 799.553 837.822 800.034 837.083 800.23C835.353 800.632 833.568 800.734 831.804 800.534C829.956 800.344 828.178 799.728 826.609 798.734C825.041 797.74 823.724 796.395 822.763 794.806C822.183 793.656 821.337 792.661 820.295 791.902L814.528 796.416C814.527 794.886 814.146 793.381 813.419 792.034C812.493 790.795 811.137 789.948 809.618 789.659C808.039 789.362 806.419 789.362 804.84 789.659C803.324 789.938 801.97 790.782 801.052 792.021C800.315 793.364 799.929 794.871 799.931 796.403L794.203 791.902C793.161 792.661 792.315 793.656 791.735 794.806C790.774 796.395 789.457 797.74 787.888 798.734C786.319 799.728 784.541 800.344 782.694 800.534C780.93 800.734 779.144 800.632 777.415 800.23C776.676 800.034 776.046 799.553 775.662 798.892C775.278 798.231 775.173 797.445 775.369 796.706C775.565 795.968 776.046 795.337 776.707 794.954C777.368 794.57 778.154 794.465 778.893 794.661C779.911 794.886 780.96 794.935 781.994 794.806C782.971 794.758 783.919 794.463 784.75 793.948C785.581 793.433 786.268 792.716 786.746 791.863C787.601 790.306 788.786 788.955 790.217 787.904C791.649 786.853 793.293 786.128 795.034 785.778L806.82 780.09L819.464 785.778Z" fill="#1D347E"/>
<path d="M813.459 786.386C814.185 787.732 814.566 789.237 814.567 790.767V798.686C814.585 801.679 815.782 804.545 817.9 806.66C820.018 808.775 822.885 809.97 825.878 809.984H827.739C828.47 809.934 829.155 809.609 829.655 809.073C830.156 808.538 830.434 807.833 830.434 807.1C830.434 806.367 830.156 805.662 829.655 805.126C829.155 804.591 828.47 804.266 827.739 804.216H825.878C825.148 804.221 824.425 804.082 823.75 803.805C823.075 803.528 822.462 803.12 821.947 802.604C821.431 802.088 821.023 801.475 820.746 800.8C820.469 800.125 820.329 799.402 820.335 798.673V790.754C820.337 788.821 819.96 786.907 819.226 785.118C818.634 783.744 818.345 782.258 818.379 780.761C818.413 779.265 818.77 777.794 819.424 776.447C821.838 772.29 823.198 767.605 823.383 762.801C823.383 758.509 821.679 754.393 818.644 751.359C815.61 748.325 811.494 746.62 807.203 746.62C802.911 746.62 798.796 748.325 795.761 751.359C792.727 754.393 791.022 758.509 791.022 762.801C791.246 767.62 792.651 772.311 795.113 776.461C795.767 777.807 796.124 779.278 796.158 780.775C796.192 782.271 795.903 783.757 795.311 785.132C794.583 786.922 794.207 788.835 794.203 790.767V798.686C794.21 799.416 794.071 800.14 793.795 800.816C793.519 801.491 793.111 802.105 792.595 802.621C792.079 803.138 791.465 803.546 790.789 803.822C790.113 804.098 789.389 804.236 788.659 804.229H786.812C786.417 804.203 786.02 804.257 785.647 804.39C785.274 804.523 784.932 804.731 784.643 805.001C784.354 805.272 784.123 805.599 783.965 805.962C783.807 806.325 783.726 806.717 783.726 807.113C783.726 807.509 783.807 807.901 783.965 808.264C784.123 808.627 784.354 808.954 784.643 809.225C784.932 809.495 785.274 809.703 785.647 809.836C786.02 809.969 786.417 810.024 786.812 809.997H788.659C791.655 809.983 794.524 808.787 796.642 806.669C798.76 804.55 799.956 801.682 799.97 798.686V790.767C799.967 789.235 800.353 787.728 801.092 786.386C802.01 785.147 803.363 784.302 804.88 784.023C806.459 783.726 808.079 783.726 809.657 784.023C811.175 784.309 812.531 785.152 813.459 786.386Z" fill="#1D347E"/>
<path d="M805.104 767.512C805.107 768.225 804.898 768.923 804.503 769.518C804.109 770.112 803.547 770.576 802.889 770.85C802.231 771.125 801.506 771.198 800.806 771.061C800.106 770.923 799.463 770.581 798.958 770.078C798.453 769.575 798.108 768.933 797.968 768.233C797.828 767.534 797.899 766.809 798.171 766.15C798.443 765.491 798.905 764.927 799.498 764.531C800.091 764.134 800.788 763.922 801.501 763.922C801.974 763.921 802.442 764.012 802.879 764.192C803.316 764.371 803.713 764.636 804.048 764.969C804.383 765.303 804.648 765.699 804.83 766.135C805.011 766.572 805.104 767.04 805.104 767.512Z" fill="#D3E7FF"/>
<path d="M816.626 767.512C816.629 768.226 816.419 768.924 816.024 769.519C815.629 770.114 815.067 770.577 814.408 770.852C813.749 771.126 813.023 771.199 812.323 771.06C811.623 770.921 810.98 770.578 810.475 770.073C809.971 769.568 809.627 768.925 809.489 768.225C809.35 767.525 809.422 766.799 809.697 766.141C809.971 765.482 810.435 764.919 811.029 764.524C811.624 764.129 812.322 763.92 813.036 763.922C813.988 763.922 814.901 764.301 815.575 764.974C816.248 765.647 816.626 766.56 816.626 767.512Z" fill="#D3E7FF"/>
<path d="M138.045 305.702C137.535 303.62 136.596 301.567 135.2 299.502C131.012 293.308 123.51 292.61 120.019 291.648C116.529 290.686 113.561 292.78 114.083 297.056C114.605 301.332 108.065 301.766 108.065 301.766C121.069 305.256 120.371 295.396 120.371 295.396C125.433 300.716 130.754 300.194 130.754 300.194C128.454 303.919 132.496 306.482 133.739 306.447C133.816 306.43 133.898 306.406 133.98 306.388C133.921 306.424 133.839 306.447 133.739 306.447C129.246 307.632 132.332 312.342 133.71 312.577C133.769 312.577 133.827 312.577 133.892 312.583C133.839 312.594 133.775 312.589 133.71 312.577C129.968 312.589 129.792 318.255 129.792 318.255C125.78 318.953 125.451 323.165 125.451 323.165L125.41 323.206L125.34 323.135C125.34 323.135 120.078 327.787 114.529 331.453C111.15 333.688 107.66 335.553 105.185 335.788C101.12 336.169 96.0165 337.067 92.7492 338.48C92.7492 338.48 86.8482 338.715 83.3815 339.994L83.3698 339.958C83.3698 339.958 83.8919 335.002 83.0179 332.644C82.1438 330.286 77.4336 328.192 75.7736 329.066C75.7736 329.066 75.5917 324.795 69.5793 322.261C60.0708 318.249 51.3542 324.531 51.3542 324.531C51.3542 324.531 60.2996 325.511 62.6518 327.81C60.9038 331.301 52.8266 332.732 52.8266 332.732C57.4488 335.958 66.3414 332.292 66.3414 332.292C68.4355 333.201 70.9812 333.547 71.9374 333.166C71.9374 333.166 75.1635 335.958 78.3076 334.738C78.3076 334.738 77.6213 340.299 80.7595 342.305L80.9003 342.311C80.7537 345.197 82.3961 346.956 84.3963 347.918C83.6103 350.71 77.7797 349.913 77.7797 349.913C77.7797 349.913 79.4397 346.071 75.9496 344.416C72.4594 342.756 65.8252 344.153 63.0331 345.901C63.0331 345.901 56.5748 342.234 53.7827 344.416L64.6051 352.881C64.6051 352.881 60.763 356.371 59.1968 354.629C59.1968 354.629 53.8765 356.113 51.9526 353.233C51.9995 353.356 56.0293 364.354 67.3092 355.849C67.3092 355.849 72.1016 360.178 76.9878 356.952C77.3632 357.128 77.8559 357.233 78.4777 357.245C83.886 357.333 88.4437 349.144 88.3557 348.88C89.8632 348.939 91.0071 348.616 91.0305 348.088C91.6699 348.828 92.5674 349.344 93.8344 349.479C94.3154 349.531 94.8961 349.584 95.5648 349.619L99.0667 345.642L100.076 349.502C101.935 349.314 104.058 348.921 106.393 348.188C108.669 347.473 111.144 346.44 113.761 344.944C116.248 343.525 118.858 341.695 121.55 339.343C121.674 339.231 121.803 339.12 121.932 339.008C121.932 339.008 128.302 333.16 130.484 328.274C130.484 328.274 132.666 325.916 136.068 318.847C138.344 314.155 139.06 309.867 138.045 305.702Z" fill="#1D347E"/>
<path d="M120.365 295.396L122.548 292.692" stroke="#1D347E" stroke-width="2" stroke-miterlimit="10" stroke-linecap="round" stroke-linejoin="round"/>
<path d="M130.748 300.194L133.452 297.842" stroke="#1D347E" stroke-width="2" stroke-miterlimit="10" stroke-linecap="round" stroke-linejoin="round"/>
<path d="M133.98 306.388L138.045 305.702L138.08 305.696" stroke="#1D347E" stroke-width="2" stroke-miterlimit="10" stroke-linecap="round" stroke-linejoin="round"/>
<path d="M133.892 312.589L137.728 312.759" stroke="#1D347E" stroke-width="2" stroke-miterlimit="10" stroke-linecap="round" stroke-linejoin="round"/>
<path d="M129.792 318.261L134.414 321.141" stroke="#1D347E" stroke-width="2" stroke-miterlimit="10" stroke-linecap="round" stroke-linejoin="round"/>
<path d="M122.372 359.181L118.617 358.137L117.925 348.534L113.766 344.962L110.417 342.082L106.399 348.206L105.097 350.194" stroke="#1D347E" stroke-width="2" stroke-miterlimit="10" stroke-linecap="round" stroke-linejoin="round"/>
<path d="M112.511 342.956L117.227 336.668L121.556 339.36L125.516 341.818L124.12 352.112L127.868 353.772" stroke="#1D347E" stroke-width="2" stroke-miterlimit="10" stroke-linecap="round" stroke-linejoin="round"/>
<path d="M93.9283 351.502L95.5708 349.637L99.0727 345.66L100.087 349.52L100.997 352.986L95.5825 358.483L95.6705 361.803" stroke="#1D347E" stroke-width="2" stroke-miterlimit="10" stroke-linecap="round" stroke-linejoin="round"/>
<path d="M95.1484 337.02L94.8844 334.227" stroke="#1D347E" stroke-width="2" stroke-miterlimit="10" stroke-linecap="round" stroke-linejoin="round"/>
<path d="M101.255 335.888L105.531 331.611L108.147 334.662" stroke="#1D347E" stroke-width="2" stroke-miterlimit="10" stroke-linecap="round" stroke-linejoin="round"/>
<path d="M84.5665 354.412L83.7159 358.923L80.8358 360.929" stroke="#1D347E" stroke-width="2" stroke-miterlimit="10" stroke-linecap="round" stroke-linejoin="round"/>
<g clip-path="url(#clip3_1_36)">
<path d="M773.364 45.4379L773.364 45.4379L754.042 37.8478V35.6374C754.042 35.1947 754.164 34.9001 754.438 34.6111C754.742 34.2901 755.237 33.9722 756.025 33.5399L756.025 33.5398C756.092 33.5028 756.161 33.4652 756.231 33.427C758.128 32.3905 760.845 30.9062 760.845 27.1336C760.845 22.637 757.188 18.9801 752.691 18.9801C748.196 18.9801 744.538 22.6369 744.538 27.1336V27.6336H745.038H746.739H747.239V27.1336C747.239 24.1272 749.685 21.6809 752.691 21.6809C755.698 21.6809 758.144 24.1272 758.144 27.1336C758.144 28.2736 757.734 29.0219 757.125 29.6113C756.537 30.1812 755.769 30.6007 754.934 31.0573C754.865 31.0951 754.795 31.1332 754.725 31.1716L754.725 31.1717C753.175 32.0227 751.341 33.1234 751.341 35.6374V37.8478L732.018 45.4379L732.018 45.4379C729.331 46.4943 727.53 48.8653 727.53 51.7948C727.53 55.6105 729.992 59.0978 733.983 59.0978H771.4C775.39 59.0978 777.852 55.6105 777.852 51.7948C777.852 48.8653 776.052 46.4943 773.364 45.4379ZM733.983 56.3971C732.806 56.3971 731.885 55.875 731.245 55.0476C730.596 54.2098 730.231 53.0471 730.231 51.7948C730.231 50.0099 731.291 48.6265 732.987 47.9597C732.987 47.9594 732.988 47.9592 732.989 47.9589L752.691 40.4247L772.377 47.9521C772.378 47.9524 772.378 47.9527 772.379 47.953C774.092 48.6261 775.152 50.0108 775.152 51.7948C775.152 53.0471 774.786 54.2098 774.138 55.0476C773.498 55.875 772.576 56.3971 771.4 56.3971H733.983Z" fill="#1D347E" stroke="#1D347E"/>
</g>
<path d="M394.91 511.164C393.916 506.18 392.086 502.74 387.869 500.82C387.833 480.228 381.845 457.365 362.705 446.698C364.234 446.035 369.182 445.007 370.707 444.726C371.846 444.517 372.798 443.808 373.252 442.829C373.707 441.851 373.604 440.73 372.978 439.834C372.384 438.985 368.125 436.931 362.188 436.211C355.515 435.913 351.92 435.913 343.208 437.665C338.59 439.244 336.347 439.463 333.75 439.716C331.542 439.931 329.039 440.176 325.062 441.196C313.609 444.134 308.221 448.795 305.165 451.855C302.779 454.243 301.459 459.102 301.592 461.077C301.024 461.364 301.081 461.412 300.454 461.743C296.256 463.957 294.803 464.992 294.468 466.756C294.22 468.058 294.674 468.911 295.747 470.078C297.478 471.701 298.463 471.862 301.181 471.862C305.476 471.191 309.03 469.794 313.404 468.447C316 468.194 318.238 468.647 322.156 469.419C327.229 470.593 332.657 471.913 337.162 471.862C338.033 473.507 339.481 476.582 341.815 479.383C347.905 486.691 355.012 486.236 355.741 486.242C357.058 486.259 358.104 486.299 358.711 485.217C359.317 484.135 359.214 482.842 358.431 481.86C357.797 481.054 355.505 479.786 354.88 476.481C354.702 475.539 354.782 474.745 354.796 473.994C362.902 476.371 375.413 483.611 377.058 491.499L377.111 497.164C377.135 497.165 377.088 497.163 377.111 497.164C376.739 497.149 375.944 497.145 375.376 497.145C373.902 497.145 372.306 497.295 370.498 497.583C364.625 498.52 360.49 501.982 360.091 502.415C360.091 502.415 358.95 503.325 359.613 504.484C360.27 505.634 361.567 506.313 362.978 506.202L363.043 506.201C372.022 507.453 384.134 513.103 387.825 520.313C388.401 521.463 389.654 522.19 391.02 522.19C391.107 522.19 391.196 522.188 391.284 522.18C392.75 522.08 393.994 521.155 394.4 519.861C394.504 519.527 395.409 515.404 394.91 511.164Z" fill="#1D347E"/>
<path d="M312.376 461.077C314.362 461.077 315.971 459.468 315.971 457.482C315.971 455.497 314.362 453.887 312.376 453.887C310.391 453.887 308.781 455.497 308.781 457.482C308.781 459.468 310.391 461.077 312.376 461.077Z" fill="#D3E7FF"/>
<path opacity="0.2" d="M357.635 436.067C353.401 436.024 349.741 436.354 343.207 437.668C338.589 439.247 336.346 439.465 333.749 439.718C331.541 439.934 329.04 440.173 325.064 441.193C313.61 444.131 308.222 448.792 305.165 451.851C302.779 454.239 301.459 459.102 301.592 461.077C301.024 461.364 301.082 461.413 300.454 461.744C296.257 463.959 294.8 464.994 294.465 466.757C294.291 467.676 294.49 468.37 294.984 469.11C295.74 467.983 297.333 466.986 300.454 465.339C301.082 465.008 301.024 464.959 301.592 464.672C301.459 462.697 302.779 457.834 305.165 455.446C308.222 452.387 313.61 447.726 325.064 444.788C329.04 443.768 331.541 443.529 333.749 443.313C336.346 443.06 338.589 442.842 343.207 441.263C351.918 439.511 355.513 439.505 362.185 439.803C368.025 440.512 372.205 442.503 372.907 443.377C373.036 443.204 373.159 443.026 373.251 442.829C373.705 441.85 373.603 440.733 372.977 439.838C372.383 438.989 368.122 436.928 362.185 436.208C360.517 436.133 359.047 436.082 357.635 436.067ZM366.602 449.19C365.026 449.558 363.449 449.97 362.705 450.293C381.845 460.96 387.832 483.821 387.869 504.413C392.084 506.332 393.917 509.775 394.911 514.755V514.762C394.952 515.11 394.938 515.436 394.961 515.78C395.062 514.382 395.105 512.818 394.911 511.167V511.16C393.917 506.18 392.084 502.737 387.869 500.818C387.835 481.702 382.653 460.647 366.602 449.19ZM354.799 477.591C354.784 478.343 354.705 479.135 354.883 480.077C355.508 483.382 357.795 484.649 358.429 485.455C358.441 485.47 358.445 485.489 358.457 485.504C358.54 485.406 358.639 485.343 358.71 485.216C359.316 484.134 359.212 482.843 358.429 481.86C357.884 481.166 356.116 480.121 355.234 477.739C355.095 477.696 354.936 477.631 354.799 477.591ZM375.378 497.146C373.904 497.146 372.307 497.292 370.498 497.581C364.626 498.518 360.491 501.986 360.093 502.419C360.093 502.419 358.953 503.325 359.615 504.483C359.867 504.924 360.23 505.273 360.641 505.557C361.855 504.545 365.456 501.98 370.498 501.176C372.307 500.887 373.904 500.74 375.378 500.74C375.946 500.74 376.74 500.746 377.112 500.762L377.077 497.167C376.696 497.152 375.934 497.146 375.378 497.146Z" fill="#D3E7FF"/>
<defs>
<clipPath id="clip0_1_36">
<rect width="40.2227" height="40.2227" fill="white" transform="translate(553.073 21.7202)"/>
</clipPath>
<clipPath id="clip1_1_36">
<rect width="64.3562" height="64.3562" fill="white" transform="translate(538.984 448.885)"/>
</clipPath>
<clipPath id="clip2_1_36">
<rect width="105.383" height="105.383" fill="white" transform="translate(1001.2 440.84)"/>
</clipPath>
<clipPath id="clip3_1_36">
<rect width="59.5295" height="59.5295" fill="white" transform="translate(723.203 9.02222)"/>
</clipPath>
</defs>
</svg>
